<svg xmlns="http://www.w3.org/2000/svg" version="1.1" xmlns:xlink="http://www.w3.org/1999/xlink" xmlns:svgjs="http://svgjs.dev/svgjs" width="1000" height="239" viewBox="0 0 1000 239"><g transform="matrix(1,0,0,1,-0.6060606060606233,-0.09298976375980317)"><svg viewBox="0 0 396 95" data-background-color="#046380" preserveAspectRatio="xMidYMid meet" height="239" width="1000" xmlns="http://www.w3.org/2000/svg" xmlns:xlink="http://www.w3.org/1999/xlink"><g id="tight-bounds" transform="matrix(1,0,0,1,0.2400000000000091,0.036962458398249964)"><svg viewBox="0 0 395.52 94.92607508320347" height="94.92607508320347" width="395.52"><g><svg viewBox="0 0 620.8701892344055 149.0108469867211" height="94.92607508320347" width="395.52"><g><rect width="6.139045658185739" height="149.0108469867211" x="203.14034342390116" y="0" fill="#ffffff" opacity="1" stroke-width="0" stroke="transparent" fill-opacity="1" class="rect-i$-0" data-fill-palette-color="primary" rx="1%" id="i$-0" data-palette-color="#ffffff"></rect></g><g transform="matrix(1,0,0,1,225.3501892344056,0.3706737487231777)"><svg viewBox="0 0 395.52 148.26949948927475" height="148.26949948927475" width="395.52"><g id="textblocktransform"><svg viewBox="0 0 395.52 148.26949948927475" height="148.26949948927475" width="395.52" id="textblock"><g><svg viewBox="0 0 395.52 148.26949948927475" height="148.26949948927475" width="395.52"><g transform="matrix(1,0,0,1,0,0)"><svg width="395.52" viewBox="1.6000000000000005 -33.1 195.80000000000004 70.4" height="148.26949948927475" data-palette-color="#ffffff"><svg></svg><svg></svg><g class="wordmark-text-0" data-fill-palette-color="primary" id="text-0"><path d="M18.6 0.6v0c-2.267 0-4.4-0.343-6.4-1.03-2-0.68-3.74-1.713-5.22-3.1-1.487-1.38-2.653-3.11-3.5-5.19-0.853-2.087-1.28-4.513-1.28-7.28v0c0-2.733 0.433-5.16 1.3-7.28 0.867-2.113 2.043-3.897 3.53-5.35 1.48-1.447 3.203-2.553 5.17-3.32 1.967-0.767 4.033-1.15 6.2-1.15v0c2.4 0 4.477 0.423 6.23 1.27 1.747 0.853 3.203 1.863 4.37 3.03v0l-4.5 5.5c-0.8-0.7-1.64-1.277-2.52-1.73-0.887-0.447-1.98-0.67-3.28-0.67v0c-1.1 0-2.117 0.217-3.05 0.65-0.933 0.433-1.75 1.05-2.45 1.85-0.7 0.8-1.24 1.783-1.62 2.95-0.387 1.167-0.58 2.483-0.58 3.95v0c0 3.067 0.683 5.417 2.05 7.05 1.367 1.633 3.517 2.45 6.45 2.45v0c0.467 0 0.927-0.05 1.38-0.15 0.447-0.1 0.82-0.25 1.12-0.45v0-4.5h-4.8v-7h12.4v15.5c-1.167 1.1-2.717 2.04-4.65 2.82-1.933 0.787-4.05 1.18-6.35 1.18zM56.8 0h-20.9v-32.5h8.6v25.3h12.3zM74.1 0.6v0c-2.267 0-4.323-0.383-6.17-1.15-1.853-0.767-3.437-1.877-4.75-3.33-1.32-1.447-2.347-3.227-3.08-5.34-0.733-2.12-1.1-4.513-1.1-7.18v0c0-2.667 0.367-5.043 1.1-7.13 0.733-2.08 1.76-3.83 3.08-5.25 1.313-1.413 2.897-2.487 4.75-3.22 1.847-0.733 3.903-1.1 6.17-1.1v0c2.233 0 4.283 0.367 6.15 1.1 1.867 0.733 3.46 1.817 4.78 3.25 1.313 1.433 2.337 3.183 3.07 5.25 0.733 2.067 1.1 4.433 1.1 7.1v0c0 2.667-0.367 5.06-1.1 7.18-0.733 2.113-1.757 3.893-3.07 5.34-1.32 1.453-2.913 2.563-4.78 3.33-1.867 0.767-3.917 1.15-6.15 1.15zM74.1-6.8v0c1.967 0 3.51-0.86 4.63-2.58 1.113-1.713 1.67-4.053 1.67-7.02v0c0-2.967-0.557-5.26-1.67-6.88-1.12-1.613-2.663-2.42-4.63-2.42v0c-1.967 0-3.507 0.807-4.62 2.42-1.12 1.62-1.68 3.913-1.68 6.88v0c0 2.967 0.56 5.307 1.68 7.02 1.113 1.72 2.653 2.58 4.62 2.58zM107.7 0h-12.7v-32.5h11.7c1.7 0 3.3 0.123 4.8 0.37 1.5 0.253 2.8 0.68 3.9 1.28 1.1 0.6 1.977 1.423 2.63 2.47 0.647 1.053 0.97 2.38 0.97 3.98v0c0 0.7-0.1 1.407-0.3 2.12-0.2 0.72-0.473 1.403-0.82 2.05-0.353 0.653-0.78 1.23-1.28 1.73-0.5 0.5-1.067 0.867-1.7 1.1v0 0.2c1.567 0.467 2.893 1.307 3.98 2.52 1.08 1.22 1.62 2.913 1.62 5.08v0c0 1.667-0.34 3.107-1.02 4.32-0.687 1.22-1.603 2.223-2.75 3.01-1.153 0.78-2.513 1.353-4.08 1.72-1.567 0.367-3.217 0.55-4.95 0.55zM103.6-25.9v6.1h2.9c1.4 0 2.433-0.3 3.1-0.9 0.667-0.6 1-1.4 1-2.4v0c0-1-0.333-1.717-1-2.15-0.667-0.433-1.7-0.65-3.1-0.65v0zM103.6-13.5v6.9h3.5c3.333 0 5-1.2 5-3.6v0c0-1.2-0.407-2.05-1.22-2.55-0.82-0.5-2.08-0.75-3.78-0.75v0zM147.1 0h-21.5v-32.5h21v7.2h-12.4v5.1h10.6v7.2h-10.6v5.8h12.9zM159.5 0h-9.2l8.8-16.7-8.3-15.8h9.6l2.2 5.3c0.367 0.767 0.727 1.59 1.08 2.47 0.347 0.887 0.753 1.863 1.22 2.93v0h0.2c0.367-1.067 0.717-2.043 1.05-2.93 0.333-0.88 0.65-1.703 0.95-2.47v0l1.9-5.3h9.2l-8.3 16.2 8.8 16.3h-9.6l-2.6-5.8c-0.4-0.867-0.783-1.733-1.15-2.6-0.367-0.867-0.75-1.8-1.15-2.8v0h-0.2c-0.367 1-0.717 1.933-1.05 2.8-0.333 0.867-0.683 1.733-1.05 2.6v0z" fill="#ffffff" fill-rule="nonzero" stroke="none" stroke-width="1" stroke-linecap="butt" stroke-linejoin="miter" stroke-miterlimit="10" stroke-dasharray="" stroke-dashoffset="0" font-family="none" font-weight="none" font-size="none" text-anchor="none" style="mix-blend-mode: normal" data-fill-palette-color="primary" opacity="1"></path><path transform="translate(0,36.7)" d="M13.9 0.6v0c-2.067 0-4.19-0.377-6.37-1.13-2.187-0.747-4.163-1.92-5.93-3.52v0l4.9-5.9c1.167 0.933 2.427 1.69 3.78 2.27 1.347 0.587 2.62 0.88 3.82 0.88v0c1.3 0 2.243-0.2 2.83-0.6 0.58-0.4 0.87-0.967 0.87-1.7v0c0-0.4-0.1-0.733-0.3-1-0.2-0.267-0.49-0.517-0.87-0.75-0.387-0.233-0.847-0.46-1.38-0.68-0.533-0.213-1.15-0.453-1.85-0.72v0l-4.05-1.7c-0.867-0.333-1.7-0.777-2.5-1.33-0.8-0.547-1.5-1.197-2.1-1.95-0.6-0.747-1.073-1.603-1.42-2.57-0.353-0.967-0.53-2.033-0.53-3.2v0c0-1.4 0.3-2.71 0.9-3.93 0.6-1.213 1.433-2.28 2.5-3.2 1.067-0.913 2.343-1.637 3.83-2.17 1.48-0.533 3.103-0.8 4.87-0.8v0c1.867 0 3.76 0.35 5.68 1.05 1.913 0.7 3.62 1.8 5.12 3.3v0l-4.3 5.4c-1.1-0.767-2.157-1.35-3.17-1.75-1.02-0.4-2.13-0.6-3.33-0.6v0c-1.067 0-1.9 0.183-2.5 0.55-0.6 0.367-0.9 0.917-0.9 1.65v0c0 0.767 0.427 1.357 1.28 1.77 0.847 0.42 2.02 0.913 3.52 1.48v0l3.95 1.55c2.033 0.8 3.6 1.917 4.7 3.35 1.1 1.433 1.65 3.283 1.65 5.55v0c0 1.367-0.283 2.683-0.85 3.95-0.567 1.267-1.39 2.373-2.47 3.32-1.087 0.953-2.413 1.713-3.98 2.28-1.567 0.567-3.367 0.85-5.4 0.85zM40.4 0h-8.6v-32.5h8.6v12.1h9.7v-12.1h8.6v32.5h-8.6v-12.9h-9.7zM74.5 0h-8.6v-32.5h8.6zM90.3 0h-8.6v-32.5h11.9c1.767 0 3.45 0.173 5.05 0.52 1.6 0.353 3 0.953 4.2 1.8 1.2 0.853 2.16 1.97 2.88 3.35 0.713 1.387 1.07 3.097 1.07 5.13v0c0 2-0.357 3.717-1.07 5.15-0.72 1.433-1.68 2.607-2.88 3.52-1.2 0.92-2.583 1.603-4.15 2.05-1.567 0.453-3.2 0.68-4.9 0.68v0h-3.5zM90.3-25.7v8.6h3.1c1.7 0 2.96-0.4 3.78-1.2 0.813-0.8 1.22-1.933 1.22-3.4v0c0-1.467-0.45-2.5-1.35-3.1-0.9-0.6-2.183-0.9-3.85-0.9v0zM120.7 0h-8.6v-32.5h11.9c1.767 0 3.45 0.173 5.05 0.52 1.6 0.353 3 0.953 4.2 1.8 1.2 0.853 2.16 1.97 2.88 3.35 0.713 1.387 1.07 3.097 1.07 5.13v0c0 2-0.357 3.717-1.07 5.15-0.72 1.433-1.68 2.607-2.88 3.52-1.2 0.92-2.583 1.603-4.15 2.05-1.567 0.453-3.2 0.68-4.9 0.68v0h-3.5zM120.7-25.7v8.6h3.1c1.7 0 2.96-0.4 3.78-1.2 0.813-0.8 1.22-1.933 1.22-3.4v0c0-1.467-0.45-2.5-1.35-3.1-0.9-0.6-2.183-0.9-3.85-0.9v0zM164 0h-21.5v-32.5h21v7.2h-12.4v5.1h10.6v7.2h-10.6v5.8h12.9zM178.9 0h-8.6v-32.5h12.3c1.733 0 3.393 0.167 4.98 0.5 1.58 0.333 2.963 0.9 4.15 1.7 1.18 0.8 2.12 1.873 2.82 3.22 0.7 1.353 1.05 3.047 1.05 5.08v0c0 2.333-0.473 4.267-1.42 5.8-0.953 1.533-2.23 2.733-3.83 3.6v0l7.05 12.6h-9.6l-5.6-10.9h-3.3zM178.9-25.7v8h3.1c3.467 0 5.2-1.433 5.2-4.3v0c0-1.4-0.44-2.367-1.32-2.9-0.887-0.533-2.18-0.8-3.88-0.8v0z" fill="#ffffff" fill-rule="nonzero" stroke="none" stroke-width="1" stroke-linecap="butt" stroke-linejoin="miter" stroke-miterlimit="10" stroke-dasharray="" stroke-dashoffset="0" font-family="none" font-weight="none" font-size="none" text-anchor="none" style="mix-blend-mode: normal" data-fill-palette-color="primary" opacity="1"></path></g></svg></g></svg></g></svg></g></svg></g><g transform="matrix(1,0,0,1,0,0.3706737487231777)"><svg viewBox="0 0 187.06954327158246 148.26949948927475" height="148.26949948927475" width="187.06954327158246"><g><svg xmlns="http://www.w3.org/2000/svg" xmlns:xlink="http://www.w3.org/1999/xlink" version="1.1" x="0" y="0" viewBox="5.3830000000000044 6.6370000000000005 89.234 70.726" enable-background="new 0 0 100 100" xml:space="preserve" height="148.26949948927475" width="187.06954327158246" class="icon-icon-0" data-fill-palette-color="accent" id="icon-0"><g fill="#ffffff" data-fill-palette-color="accent"><path fill-rule="evenodd" clip-rule="evenodd" d="M91.572 61.785c-6.908 8.823-25.157 15.578-46.407 15.578-11.709 0-22.507-2.051-31.01-5.42-5.172-6.862-8.449-15.35-8.772-24.935C14.592 51.705 27.652 54.9 42.13 54.9c27.253 0 49.481-11.318 49.716-24.919 1.877 4.922 2.771 9.915 2.771 15.11C94.616 51.248 93.361 57.122 91.572 61.785L91.572 61.785z" fill="#ffffff" data-fill-palette-color="accent"></path><path fill-rule="evenodd" clip-rule="evenodd" d="M88.333 31.178c-5.258 6.343-20.443 11.091-38.303 11.091-21.982 0-40.382-7.191-39.911-16.008 0.059-1.102 0.384-2.179 0.865-3.115 3.788-6.778 9.431-12.542 16.035-16.509-1.534 1.329-2.281 2.731-2.281 4.201 0 5.878 11.952 10.672 26.607 10.672 11.907 0 22.03-3.165 25.437-7.379C82.109 19.431 85.692 24.775 88.333 31.178L88.333 31.178z" fill="#ffffff" data-fill-palette-color="accent"></path></g></svg></g></svg></g></svg></g><defs></defs></svg><rect width="395.52" height="94.92607508320347" fill="none" stroke="none" visibility="hidden"></rect></g></svg></g></svg>