<svg xmlns="http://www.w3.org/2000/svg" viewBox="0 0 49.8 49.8 " width="105" height="105" > <path d="M38.9 2.8c-1.7 1.3-2.1 2-8 7.8l-3.6-.6 1.6-1.6c1.1-1.1 1.1-3 0-4.1s-3-1.1-4.1 0l-4.6 4.6L4.1 6.3C2.4 6 .7 7.2.4 9c-.2 1.2.3 2.5 1.3 3.2l16 11.6-3 3c-1.2 1.3-2.3 2.7-3.2 4.2L4 28.8c-1.7-.5-3.4.5-3.9 2.1-.4 1.3.1 2.7 1.2 3.5l6.1 4.2c-1.1 2.4-1.7 4.1-1.8 4.1-.1.4 0 .8.2 1 .3.3.7.4 1 .2.1 0 1.8-.7 4.1-1.7l4.2 6.1c1 1.4 2.9 1.8 4.4.8 1.1-.8 1.6-2.2 1.2-3.5l-2.2-7.5c1.5-.9 2.9-2 4.2-3.2l3-3 11.6 16c1.1 1.5 3.1 1.8 4.6.7 1-.7 1.5-2 1.3-3.2l-2.6-16.1 4.6-4.6c1.1-1.1 1.1-3 0-4.1s-3-1.1-4.1 0l-1.6 1.6-.6-3.6c5.9-5.9 6.5-6.4 7.8-8 3-3.9 3.7-7.8 1.8-9.8s-5.7-1-9.6 2zM26.2 5.7c.4-.4 1-.4 1.4 0 .4.3.4 1 0 1.3L25 9.7l-2.4-.4 3.6-3.6zM2.8 10.6c-.6-.4-.7-1.2-.3-1.8 0-.1.1-.1.2-.2.3-.3.7-.5 1.1-.4l25.3 4.1-10 10.1L2.8 10.6zM2.3 31c.3-.3.8-.4 1.2-.3l7 2.1C9.7 34 9 35.4 8.3 36.9l-5.8-4.1c-.5-.4-.7-1.1-.3-1.7 0 0 0-.1.1-.1zm16.5 16.5c-.5.5-1.2.5-1.7 0-.1-.1-.1-.1-.1-.2l-4.1-5.9c1.5-.7 2.9-1.4 4.1-2.2l2.1 7c.1.5 0 1-.3 1.3zm23.9-25.3c.4-.4 1-.4 1.4 0 .4.4.4 1 0 1.4l-3.6 3.6-.4-2.4 2.6-2.6zm-1.2 23.7c.1.7-.4 1.4-1.1 1.5-.5.1-1-.1-1.3-.5L27.4 30.7l10.1-10.1 4 25.3zM21.6 33.7c-1.4 1.3-3 2.5-4.7 3.4-2.7 1.6-5.6 3-8.5 4.2 1.2-3 2.7-5.9 4.3-8.7.9-1.6 2.1-3.1 3.3-4.5C39.8 4.5 38.4 5.7 39.9 4.6c2.6-.3 5 1.5 5.3 4.1.1.4.1.8 0 1.2-1.1 1.4.1 0-23.6 23.8zM46.9 7.3c-.6-2.2-2.3-3.8-4.4-4.4 1.4-.7 3.8-1.5 4.9-.4.8.8.5 2.7-.5 4.8z" fill-rule="evenodd" clip-rule="evenodd" fill="#EEDC82 "></path></svg>