<?xml version="1.0" standalone="no"?>
<!DOCTYPE svg PUBLIC "-//W3C//DTD SVG 20010904//EN"
 "http://www.w3.org/TR/2001/REC-SVG-20010904/DTD/svg10.dtd">
<svg version="1.0" xmlns="http://www.w3.org/2000/svg"
 width="512.000000pt" height="512.000000pt" viewBox="0 0 512.000000 512.000000"
 preserveAspectRatio="xMidYMid meet">

<g transform="translate(0.000000,512.000000) scale(0.100000,-0.100000)"
fill="#1b6dc1" stroke="none">
<path d="M2618 5105 c-51 -29 -58 -58 -58 -245 l0 -170 -285 0 -285 0 -32 -29
-33 -29 -3 -185 -3 -185 -284 0 c-189 0 -290 -4 -304 -11 -51 -28 -51 -24 -51
-678 l0 -608 -278 -94 c-152 -52 -290 -100 -305 -108 -15 -8 -35 -29 -44 -48
-16 -34 -14 -45 147 -772 90 -406 165 -740 166 -742 2 -2 31 8 66 22 194 77
422 76 610 -3 37 -15 106 -54 154 -86 75 -50 94 -58 143 -62 54 -4 60 -2 124
42 149 102 278 152 419 163 l78 6 0 798 0 797 26 31 c50 60 36 63 696 -169
332 -117 614 -219 626 -227 13 -8 30 -30 38 -50 28 -66 -21 -143 -92 -143 -19
0 -264 81 -545 180 -281 99 -516 180 -523 180 -8 0 -11 -189 -10 -710 0 -391
4 -713 7 -717 4 -3 39 -19 79 -35 40 -16 111 -55 158 -86 75 -50 91 -57 145
-60 58 -4 63 -2 128 42 37 25 90 59 119 75 192 107 479 120 675 31 45 -20 65
-26 68 -17 16 48 325 1453 325 1477 0 63 -31 80 -347 186 l-293 99 0 601 c0
403 -4 611 -11 632 -22 62 -31 64 -345 64 l-283 0 -3 185 -3 185 -33 29 -32
29 -180 0 -180 0 0 180 0 180 -27 30 c-34 37 -85 47 -125 25z m1010 -1552 c2
-372 -1 -503 -9 -503 -7 0 -237 81 -513 179 -275 99 -513 182 -527 186 -19 5
-161 -42 -544 -179 -286 -102 -525 -186 -532 -186 -10 0 -13 97 -13 498 0 274
2 501 5 504 3 3 483 5 1068 4 l1062 -1 3 -502z"/>
<path d="M1774 3830 c-32 -13 -64 -59 -64 -92 0 -40 24 -82 55 -96 19 -9 220
-12 795 -12 575 0 776 3 795 12 59 27 72 109 26 160 l-29 33 -779 2 c-428 1
-788 -2 -799 -7z"/>
<path d="M1295 1063 c-118 -7 -211 -43 -334 -126 -96 -66 -140 -81 -241 -81
-100 0 -145 15 -238 78 -140 96 -224 126 -351 126 -63 0 -75 -3 -96 -24 -72
-73 -28 -169 83 -181 100 -11 143 -27 239 -91 52 -35 119 -72 150 -84 184 -69
399 -41 553 71 97 70 155 92 251 97 106 5 164 -11 254 -74 163 -111 309 -150
466 -124 104 17 166 43 267 110 108 71 161 90 258 90 89 0 164 -24 232 -73
155 -112 311 -154 473 -127 98 16 174 48 267 111 98 67 160 90 242 92 98 2
162 -18 253 -81 101 -69 164 -97 268 -118 154 -31 308 4 458 103 98 66 153 88
240 97 35 4 74 14 87 22 33 22 48 75 34 118 -16 50 -47 66 -127 66 -115 0
-219 -37 -331 -116 -95 -69 -150 -88 -252 -88 -103 0 -150 17 -268 97 -125 84
-187 102 -352 102 -125 0 -140 -2 -205 -29 -38 -16 -104 -51 -145 -79 -108
-73 -158 -91 -260 -91 -96 0 -150 19 -257 92 -105 71 -178 99 -288 111 -145
16 -288 -21 -415 -108 -129 -88 -224 -114 -336 -91 -66 14 -119 40 -213 105
-99 69 -236 105 -366 98z"/>
<path d="M2484 418 c-89 -9 -188 -48 -274 -107 -129 -88 -224 -114 -336 -91
-66 14 -119 40 -214 106 -94 65 -194 94 -323 94 -154 0 -234 -27 -376 -123
-96 -66 -140 -81 -241 -81 -101 0 -145 15 -241 81 -133 91 -223 123 -347 123
-64 0 -76 -3 -97 -24 -72 -73 -28 -169 83 -181 100 -11 143 -27 239 -91 52
-35 119 -72 150 -84 184 -69 399 -41 553 71 97 70 155 92 251 97 106 5 164
-11 254 -74 124 -84 214 -119 338 -129 136 -12 269 28 408 123 93 63 150 82
243 82 93 0 158 -20 227 -68 173 -123 326 -163 497 -128 103 21 157 44 251
108 97 66 159 89 241 91 98 2 162 -18 253 -81 101 -69 164 -97 268 -118 154
-31 308 4 458 103 98 66 153 88 240 97 35 4 74 14 87 22 33 22 48 75 34 119
-17 52 -43 65 -125 65 -118 0 -220 -36 -333 -116 -95 -69 -150 -88 -252 -88
-103 0 -150 17 -268 97 -125 84 -187 102 -352 102 -125 0 -140 -2 -205 -29
-38 -16 -104 -51 -145 -79 -108 -73 -158 -91 -260 -91 -96 0 -150 19 -260 94
-137 93 -265 125 -426 108z"/>
</g>
</svg>
